# xmcd
#
# Track frame offsets:
#	150
#	9473
#	21677
#	34925
#	48168
#	59549
#	72157
#	90540
#	104922
#	115296
#	128407
#	139535
#	149829
#	164272
#	179911
#	194689
#	210643
#	226011
#	239561
#	250960
#
# Disc length: 3534 seconds
#
# Revision: 1
# Processed by: cddbd v1.5.2PL0 Copyright (c) Steve Scherf et al.
# Submitted via: audiograbber 1.83.01
#
DISCID=320dcc14
DTITLE=Various Artist - The Best Of County Party - CD 05
DYEAR=2014
DGENRE=Country
TTITLE0=Elvis Presley - Blue Moon Of Kentucky
TTITLE1=Hank Williams - Your Cheating Heart
TTITLE2=Lynn Anderson - Rose Garden
TTITLE3=Vaugn Monroe - Riders In The Sky
TTITLE4=Clint Eastwood - Cowboy Wedding Song
TTITLE5=Johnny Cash - Folsom Prison Blues
TTITLE6=Mark Wills - Wish You Were Here
TTITLE7=T. Graham Brown - Darlene
TTITLE8=Charlie Walker - Pick Me Up On Your Way
TTITLE9=Gene Pitney - Liberty Valance
TTITLE10=Sandy Posey - I Will Follow Him
TTITLE11=Dale Watson And His Lone Star - Truck Stop In LaGrange
TTITLE12=Red Foley - (There Will Be) Peace In The Valley
TTITLE13=The Coal Men - Outside Lookin' In
TTITLE14=Jeanne Pruett - Satin Sheets
TTITLE15=Pam Tillis - Mi Vida Loca
TTITLE16=TG Sheppard - War Is Hell
TTITLE17=Bjoro Haland - The Way I Am
TTITLE18=Doc Watson - Tom Dooley
TTITLE19=The Hot Billys - Cotton Eyed Joe
EXTD=
EXTT0=
EXTT1=
EXTT2=
EXTT3=
EXTT4=
EXTT5=
EXTT6=
EXTT7=
EXTT8=
EXTT9=
EXTT10=
EXTT11=
EXTT12=
EXTT13=
EXTT14=
EXTT15=
EXTT16=
EXTT17=
EXTT18=
EXTT19=
PLAYORDER=
